HIERARCHY
ROOT newVegas:Hips
{
	OFFSET 0.000000 96.479958 0.000000
	CHANNELS 6 Xposition Yposition Zposition Xrotation Yrotation Zrotation
	JOINT newVegas:Pelvis
	{
		OFFSET 0.000000 0.000000 0.000000
		CHANNELS 3 Xrotation Yrotation Zrotation
		JOINT newVegas:LeftUpLeg
		{
			OFFSET 18.735201 -5.666702 -4.541200
			CHANNELS 3 Xrotation Yrotation Zrotation
			JOINT newVegas:LeftLeg
			{
				OFFSET -0.021200 -31.938179 0.493100
				CHANNELS 3 Xrotation Yrotation Zrotation
				JOINT newVegas:LeftFoot
				{
					OFFSET 0.021200 -31.938179 -4.336299
					CHANNELS 3 Xrotation Yrotation Zrotation
					JOINT newVegas:LeftToeBase
					{
						OFFSET 0.943001 -26.722000 15.023500
						CHANNELS 3 Xrotation Yrotation Zrotation
						End Site
						{
							OFFSET 0.000000 30.670183 0.000000
						}
					}
				}
				JOINT newVegas:Left_PantLeg
				{
					OFFSET 0.663870 -9.044666 -1.108900
					CHANNELS 3 Xrotation Yrotation Zrotation
					End Site
					{
						OFFSET 1.415995 20.635357 0.000000
					}
				}
			}
		}
		JOINT newVegas:RightUpLeg
		{
			OFFSET -18.735201 -5.666702 -4.541200
			CHANNELS 3 Xrotation Yrotation Zrotation
			JOINT newVegas:RightLeg
			{
				OFFSET 0.018946 -31.938133 0.493100
				CHANNELS 3 Xrotation Yrotation Zrotation
				JOINT newVegas:RightFoot
				{
					OFFSET -0.018946 -31.938126 -4.336299
					CHANNELS 3 Xrotation Yrotation Zrotation
					JOINT newVegas:RightToeBase
					{
						OFFSET -0.943001 -26.722004 15.023500
						CHANNELS 3 Xrotation Yrotation Zrotation
						End Site
						{
							OFFSET 0.000000 30.670187 0.000000
						}
					}
				}
				JOINT newVegas:Right_PantLeg
				{
					OFFSET -0.661674 -9.044716 -1.108900
					CHANNELS 3 Xrotation Yrotation Zrotation
					End Site
					{
						OFFSET -1.415958 20.635269 0.000000
					}
				}
			}
		}
	}
	JOINT newVegas:Spine
	{
		OFFSET 0.000000 10.199997 -0.299500
		CHANNELS 3 Xrotation Yrotation Zrotation
		JOINT newVegas:Spine1
		{
			OFFSET 0.000000 11.900002 -1.516600
			CHANNELS 3 Xrotation Yrotation Zrotation
			JOINT newVegas:Spine2
			{
				OFFSET 0.000000 13.600006 -2.842500
				CHANNELS 3 Xrotation Yrotation Zrotation
				JOINT newVegas:Neck
				{
					OFFSET 0.000000 9.624100 -2.890100
					CHANNELS 3 Xrotation Yrotation Zrotation
					JOINT newVegas:Head
					{
						OFFSET 0.000000 14.068802 -1.351900
						CHANNELS 3 Xrotation Yrotation Zrotation
						JOINT newVegas:Hair_Back
						{
							OFFSET 0.000000 3.231903 -17.524799
							CHANNELS 3 Xrotation Yrotation Zrotation
							End Site
							{
								OFFSET 0.000000 19.849884 0.000000
							}
						}
						JOINT newVegas:Hair_Front
						{
							OFFSET 0.000000 31.260406 4.573800
							CHANNELS 3 Xrotation Yrotation Zrotation
							JOINT newVegas:Hair_Front1
							{
								OFFSET 0.000000 2.284103 11.993300
								CHANNELS 3 Xrotation Yrotation Zrotation
								JOINT newVegas:Hair_Front2
								{
									OFFSET 0.000000 2.284103 11.993300
									CHANNELS 3 Xrotation Yrotation Zrotation
									End Site
									{
										OFFSET 0.000000 12.208862 0.000000
									}
								}
							}
						}
						JOINT newVegas:Jowel
						{
							OFFSET 0.000000 -7.458206 6.864100
							CHANNELS 3 Xrotation Yrotation Zrotation
							End Site
							{
								OFFSET 0.000000 19.849884 0.000000
							}
						}
					}
				}
				JOINT newVegas:LeftShoulder
				{
					OFFSET 15.263000 10.923401 -0.547700
					CHANNELS 3 Xrotation Yrotation Zrotation
					JOINT newVegas:LeftArm
					{
						OFFSET 25.438599 -2.830597 -13.032500
						CHANNELS 3 Xrotation Yrotation Zrotation
						JOINT newVegas:LeftForeArm
						{
							OFFSET 29.960503 0.000000 0.000000
							CHANNELS 3 Xrotation Yrotation Zrotation
							JOINT newVegas:LeftHand
							{
								OFFSET 27.849251 0.000000 0.000000
								CHANNELS 3 Xrotation Yrotation Zrotation
								JOINT newVegas:LeftHandThumb1
								{
									OFFSET 4.487587 -3.305161 6.305391
									CHANNELS 3 Xrotation Yrotation Zrotation
									JOINT newVegas:LeftHandThumb2
									{
										OFFSET 5.480453 -3.164139 3.164143
										CHANNELS 3 Xrotation Yrotation Zrotation
										JOINT newVegas:LeftHandThumb3
										{
											OFFSET 5.159721 -2.978973 2.978967
											CHANNELS 3 Xrotation Yrotation Zrotation
											End Site
											{
												OFFSET 2.494507 5.926697 1.738678
											}
										}
									}
								}
								JOINT newVegas:LeftHandIndex1
								{
									OFFSET 18.578728 -0.527832 5.208049
									CHANNELS 3 Xrotation Yrotation Zrotation
									JOINT newVegas:LeftHandIndex2
									{
										OFFSET 3.192009 0.000000 0.000000
										CHANNELS 3 Xrotation Yrotation Zrotation
										JOINT newVegas:LeftHandIndex3
										{
											OFFSET 3.835129 0.000000 0.000000
											CHANNELS 3 Xrotation Yrotation Zrotation
											End Site
											{
												OFFSET -0.034599 3.816971 0.371180
											}
										}
									}
								}
								JOINT newVegas:LeftHandMiddle1
								{
									OFFSET 18.476105 0.000000 0.000000
									CHANNELS 3 Xrotation Yrotation Zrotation
									JOINT newVegas:LeftHandMiddle2
									{
										OFFSET 3.324875 0.000000 0.000000
										CHANNELS 3 Xrotation Yrotation Zrotation
										JOINT newVegas:LeftHandMiddle3
										{
											OFFSET 4.596550 0.000000 0.000000
											CHANNELS 3 Xrotation Yrotation Zrotation
											End Site
											{
												OFFSET 0.057701 4.578827 0.399218
											}
										}
									}
								}
								JOINT newVegas:LeftHandRing1
								{
									OFFSET 17.732719 0.121887 -4.201567
									CHANNELS 3 Xrotation Yrotation Zrotation
									JOINT newVegas:LeftHandRing2
									{
										OFFSET 2.733170 0.000000 0.000000
										CHANNELS 3 Xrotation Yrotation Zrotation
										JOINT newVegas:LeftHandRing3
										{
											OFFSET 3.178268 0.000000 0.000000
											CHANNELS 3 Xrotation Yrotation Zrotation
											End Site
											{
												OFFSET 0.119102 3.170624 0.185394
											}
										}
									}
								}
								JOINT newVegas:LeftHandPinky1
								{
									OFFSET 15.989624 -0.606689 -7.535461
									CHANNELS 3 Xrotation Yrotation Zrotation
									JOINT newVegas:LeftHandPinky2
									{
										OFFSET 2.538986 0.000000 0.000000
										CHANNELS 3 Xrotation Yrotation Zrotation
										JOINT newVegas:LeftHandPinky3
										{
											OFFSET 2.593102 0.000000 0.000000
											CHANNELS 3 Xrotation Yrotation Zrotation
											End Site
											{
												OFFSET -0.150902 2.584198 0.152708
											}
										}
									}
								}
							}
							JOINT newVegas:Left_Sleeve
							{
								OFFSET 0.267448 -0.649796 0.577675
								CHANNELS 3 Xrotation Yrotation Zrotation
								End Site
								{
									OFFSET 0.000000 15.991241 0.000000
								}
							}
							JOINT newVegas:Left_CapeC
							{
								OFFSET 15.715958 -8.608795 -6.935905
								CHANNELS 3 Xrotation Yrotation Zrotation
								JOINT newVegas:Left_CapeC1
								{
									OFFSET 0.000000 -8.688499 0.000000
									CHANNELS 3 Xrotation Yrotation Zrotation
									End Site
									{
										OFFSET 0.000000 8.688499 0.000000
									}
								}
							}
						}
						JOINT newVegas:Left_CapeB
						{
							OFFSET 26.118385 -8.608795 -7.079235
							CHANNELS 3 Xrotation Yrotation Zrotation
							JOINT newVegas:Left_CapeB1
							{
								OFFSET 0.000000 -8.688499 0.000000
								CHANNELS 3 Xrotation Yrotation Zrotation
								End Site
								{
									OFFSET 0.000000 8.688499 0.000000
								}
							}
						}
						JOINT newVegas:Left_CapeA
						{
							OFFSET 5.115639 -8.608795 -10.395809
							CHANNELS 3 Xrotation Yrotation Zrotation
							JOINT newVegas:Left_CapeA1
							{
								OFFSET 0.000000 -8.688499 0.000000
								CHANNELS 3 Xrotation Yrotation Zrotation
								End Site
								{
									OFFSET 0.000000 8.688499 0.000000
								}
							}
						}
					}
				}
				JOINT newVegas:RightShoulder
				{
					OFFSET -15.263000 10.923401 -0.547700
					CHANNELS 3 Xrotation Yrotation Zrotation
					JOINT newVegas:RightArm
					{
						OFFSET -25.438599 -2.830597 -13.032500
						CHANNELS 3 Xrotation Yrotation Zrotation
						JOINT newVegas:RightForeArm
						{
							OFFSET -29.960503 0.000000 0.000000
							CHANNELS 3 Xrotation Yrotation Zrotation
							JOINT newVegas:RightHand
							{
								OFFSET -27.849251 0.000000 0.000000
								CHANNELS 3 Xrotation Yrotation Zrotation
								JOINT newVegas:RightHandThumb1
								{
									OFFSET -4.487587 -3.305161 6.305391
									CHANNELS 3 Xrotation Yrotation Zrotation
									JOINT newVegas:RightHandThumb2
									{
										OFFSET -5.480453 -3.164139 3.164143
										CHANNELS 3 Xrotation Yrotation Zrotation
										JOINT newVegas:RightHandThumb3
										{
											OFFSET -5.159721 -2.978973 2.978967
											CHANNELS 3 Xrotation Yrotation Zrotation
											End Site
											{
												OFFSET -2.494507 5.926697 1.738678
											}
										}
									}
								}
								JOINT newVegas:RightHandIndex1
								{
									OFFSET -18.578728 -0.527832 5.208049
									CHANNELS 3 Xrotation Yrotation Zrotation
									JOINT newVegas:RightHandIndex2
									{
										OFFSET -3.192009 0.000000 0.000000
										CHANNELS 3 Xrotation Yrotation Zrotation
										JOINT newVegas:RightHandIndex3
										{
											OFFSET -3.835129 0.000000 0.000000
											CHANNELS 3 Xrotation Yrotation Zrotation
											End Site
											{
												OFFSET 0.034599 3.816971 0.371180
											}
										}
									}
								}
								JOINT newVegas:RightHandMiddle1
								{
									OFFSET -18.476105 0.000000 0.000000
									CHANNELS 3 Xrotation Yrotation Zrotation
									JOINT newVegas:RightHandMiddle2
									{
										OFFSET -3.324875 0.000000 0.000000
										CHANNELS 3 Xrotation Yrotation Zrotation
										JOINT newVegas:RightHandMiddle3
										{
											OFFSET -4.596550 0.000000 0.000000
											CHANNELS 3 Xrotation Yrotation Zrotation
											End Site
											{
												OFFSET -0.057701 4.578827 0.399218
											}
										}
									}
								}
								JOINT newVegas:RightHandRing1
								{
									OFFSET -17.732719 0.121887 -4.201567
									CHANNELS 3 Xrotation Yrotation Zrotation
									JOINT newVegas:RightHandRing2
									{
										OFFSET -2.733170 0.000000 0.000000
										CHANNELS 3 Xrotation Yrotation Zrotation
										JOINT newVegas:RightHandRing3
										{
											OFFSET -3.178268 0.000000 0.000000
											CHANNELS 3 Xrotation Yrotation Zrotation
											End Site
											{
												OFFSET -0.119102 3.170624 0.185394
											}
										}
									}
								}
								JOINT newVegas:RightHandPinky1
								{
									OFFSET -15.989624 -0.606689 -7.535461
									CHANNELS 3 Xrotation Yrotation Zrotation
									JOINT newVegas:RightHandPinky2
									{
										OFFSET -2.538986 0.000000 0.000000
										CHANNELS 3 Xrotation Yrotation Zrotation
										JOINT newVegas:RightHandPinky3
										{
											OFFSET -2.593102 0.000000 0.000000
											CHANNELS 3 Xrotation Yrotation Zrotation
											End Site
											{
												OFFSET 0.150902 2.584198 0.152708
											}
										}
									}
								}
							}
							JOINT newVegas:Right_CapeC
							{
								OFFSET -15.715958 -8.608795 -6.935905
								CHANNELS 3 Xrotation Yrotation Zrotation
								JOINT newVegas:Right_CapeC1
								{
									OFFSET 0.000000 -8.688499 0.000000
									CHANNELS 3 Xrotation Yrotation Zrotation
									End Site
									{
										OFFSET 0.000000 8.688499 0.000000
									}
								}
							}
							JOINT newVegas:Right_Sleeve
							{
								OFFSET -0.267448 -0.649994 0.577675
								CHANNELS 3 Xrotation Yrotation Zrotation
								End Site
								{
									OFFSET 0.000000 15.991302 0.000000
								}
							}
						}
						JOINT newVegas:Right_CapeA
						{
							OFFSET -5.115540 -8.608795 -10.395824
							CHANNELS 3 Xrotation Yrotation Zrotation
							JOINT newVegas:Right_CapeA1
							{
								OFFSET 0.000000 -8.688499 0.000000
								CHANNELS 3 Xrotation Yrotation Zrotation
								End Site
								{
									OFFSET 0.000000 8.688499 0.000000
								}
							}
						}
						JOINT newVegas:Right_CapeB
						{
							OFFSET -26.118187 -8.608795 -7.079266
							CHANNELS 3 Xrotation Yrotation Zrotation
							JOINT newVegas:Right_CapeB1
							{
								OFFSET 0.000000 -8.688499 0.000000
								CHANNELS 3 Xrotation Yrotation Zrotation
								End Site
								{
									OFFSET 0.000000 8.688499 0.000000
								}
							}
						}
					}
				}
				JOINT newVegas:Left_Collar
				{
					OFFSET 18.625099 8.655502 8.828100
					CHANNELS 3 Xrotation Yrotation Zrotation
					JOINT newVegas:Left_Collar1
					{
						OFFSET 14.783401 10.540405 -1.259500
						CHANNELS 3 Xrotation Yrotation Zrotation
						End Site
						{
							OFFSET 0.000000 18.199875 0.000000
						}
					}
				}
				JOINT newVegas:Collar_Back
				{
					OFFSET 0.000000 15.630707 -20.132601
					CHANNELS 3 Xrotation Yrotation Zrotation
					End Site
					{
						OFFSET 0.000000 22.523010 0.000000
					}
				}
				JOINT newVegas:Left_Peck
				{
					OFFSET 17.239599 -5.132599 25.482599
					CHANNELS 3 Xrotation Yrotation Zrotation
					End Site
					{
						OFFSET 0.000000 22.523010 0.000000
					}
				}
				JOINT newVegas:Right_Peck
				{
					OFFSET -17.239599 -5.132202 25.482599
					CHANNELS 3 Xrotation Yrotation Zrotation
					End Site
					{
						OFFSET 0.000000 22.523010 0.000000
					}
				}
				JOINT newVegas:Right_Collar
				{
					OFFSET -18.625099 8.655792 8.828100
					CHANNELS 3 Xrotation Yrotation Zrotation
					JOINT newVegas:Right_Collar1
					{
						OFFSET -14.783401 10.539993 -1.259500
						CHANNELS 3 Xrotation Yrotation Zrotation
						End Site
						{
							OFFSET 0.000000 18.199631 0.000000
						}
					}
				}
			}
		}
		JOINT newVegas:Belly
		{
			OFFSET 0.000000 -6.540398 9.014299
			CHANNELS 3 Xrotation Yrotation Zrotation
			End Site
			{
				OFFSET 0.000000 11.566666 0.000000
			}
		}
	}
	JOINT newVegas:ElvisFacialAnim_Joint
	{
		OFFSET 1.000000 -95.330101 -8.825800
		CHANNELS 3 Xrotation Yrotation Zrotation
		End Site
		{
			OFFSET 0.000000 35.315800 0.000000
		}
	}
}
MOTION
Frames: 4
Frame Time: 0.033333
-1.429294 80.942780 4.936733 11.258556 -1.072270 5.741225 -0.000000 -0.000000 0.000000 -38.099813 11.367846 -6.291667 63.378241 -0.853392 -1.318588 -35.624696 -2.873903 6.927172 -0.000000 -0.000000 -0.000000 -0.000003 0.000000 0.000001 -78.986104 3.991808 -7.426426 127.024757 -6.390256 -0.515147 27.337639 -0.515127 -0.843019 0.000000 0.000000 -0.000001 0.000003 0.000000 -0.000000 9.999841 -1.846292 -7.332122 2.029114 0.047011 -0.508498 4.987205 0.052526 -0.186541 -1.224466 -0.052407 0.107542 -1.224475 -0.052406 0.107542 -0.000000 0.000000 0.000000 -1.224477 -0.052407 0.107541 -1.224404 -0.052405 0.107542 0.000002 -0.000000 -0.000000 -0.000000 0.000000 0.000000 0.567974 -4.488694 -11.813872 -16.187072 -25.518753 -44.451196 -0.003730 -90.272295 -0.003279 6.703440 -11.725081 13.328037 6.622907 5.665530 3.638706 1.972327 7.193922 14.997852 -0.000003 0.000000 0.000001 -2.832547 4.628604 -73.820316 4.349145 5.655654 -75.101256 0.000001 0.000001 0.000003 -2.130540 6.310351 -75.334610 4.730117 5.743028 -78.936332 -0.000003 0.000001 -0.000000 -2.785802 6.718490 -79.567018 3.922961 5.525253 -70.728678 0.000001 0.000001 0.000003 -0.283901 7.794813 -84.955518 4.415010 5.672668 -75.768948 -0.000002 -0.000003 -0.000000 -0.000001 0.000002 0.000000 -0.000001 0.000002 0.000000 -0.000001 0.000001 0.000000 0.000003 0.000000 -0.000000 0.000004 0.000000 0.000000 0.000003 0.000000 -0.000000 0.000002 0.000001 -0.000000 0.557757 4.314581 11.777469 13.923804 4.817020 56.121424 -0.000000 89.999962 -0.000027 5.075516 2.157697 -11.202840 -2.223708 -4.629124 6.457008 14.606583 -17.538124 -18.833125 0.000000 0.000004 -0.000004 8.689035 -4.521382 90.072491 3.228631 -4.433111 72.118519 -0.000001 -0.000002 -0.000001 3.807983 -6.845074 79.868236 3.708410 -4.559687 78.232707 0.000001 0.000000 -0.000001 1.728236 -6.396540 77.716713 4.733328 -4.656528 90.938081 0.000001 -0.000004 -0.000002 6.206992 -12.373520 77.815567 3.514581 -4.515108 75.783135 -0.000000 0.000002 -0.000001 -0.000000 0.000000 -0.000000 0.000001 -0.000000 -0.000001 -0.000000 0.000000 -0.000001 0.000001 0.000001 -0.000002 0.000001 0.000002 -0.000002 0.000001 0.000001 -0.000002 0.000001 0.000002 -0.000001 -0.000001 0.000000 0.000000 -0.000001 0.000000 0.000000 -0.000001 0.000000 0.000000 -0.000001 0.000000 0.000000 -0.000001 0.000000 0.000000 -0.000001 0.000000 0.000000 -0.000001 0.000000 0.000000 0.000000 -0.000000 -0.000000 -0.000000 -0.000000 0.000000 
-1.505931 82.408142 17.233583 12.781777 -4.277260 2.160049 0.000001 0.000000 -0.000000 -21.490833 9.991295 -6.799674 53.228378 2.470307 0.572163 -44.182397 -3.134140 8.482485 -0.000000 -0.000000 -0.000000 0.000003 0.000000 -0.000001 -86.814313 -1.732641 -2.156434 112.335083 -6.025860 -1.122805 22.749583 -1.093194 -2.391443 0.000003 -0.000000 0.000000 -0.000002 0.000000 -0.000000 8.534637 -1.915718 -4.430616 1.381067 -0.361653 0.306117 4.145461 -0.283973 0.632226 -0.993277 -0.007796 0.202168 -0.993266 -0.007796 0.202166 -0.000000 0.000000 0.000000 -0.993195 -0.007799 0.202168 -0.993344 -0.007801 0.202168 -0.000001 0.000000 0.000000 -0.000000 0.000000 -0.000000 0.762040 -1.463521 -10.641278 -12.818100 -19.902509 -46.790197 0.002390 -89.265791 0.002149 -1.517713 -15.446309 -8.099787 6.911131 5.953640 3.558865 1.932350 7.375480 15.359919 0.000002 0.000000 -0.000006 -2.358953 4.962175 -75.520350 4.473959 5.687234 -76.364295 0.000001 -0.000001 -0.000000 -2.165935 6.507511 -76.998123 4.865723 5.767756 -80.288539 0.000001 -0.000001 -0.000001 -3.125291 6.896048 -81.211475 4.034639 5.562912 -71.884538 -0.000000 -0.000001 0.000000 -0.897479 7.811038 -86.506757 4.542202 5.703277 -77.052177 -0.000001 0.000000 -0.000002 0.000001 0.000001 -0.000000 0.000001 0.000001 -0.000000 0.000001 0.000000 -0.000000 -0.000001 -0.000002 -0.000004 -0.000001 -0.000001 -0.000003 -0.000001 -0.000002 -0.000004 -0.000000 -0.000002 -0.000004 0.983263 -0.958039 13.305331 8.931985 -6.308806 50.081590 0.000017 72.707070 -0.000019 -7.086726 3.749164 -11.283305 -1.878896 -5.030282 6.629462 14.454048 -17.870246 -19.528243 -0.000000 -0.000003 0.000001 9.451251 -4.254873 92.521435 3.341550 -4.467864 73.573725 -0.000002 0.000001 0.000001 3.962218 -6.872628 81.824894 3.837978 -4.584704 79.858258 -0.000001 -0.000001 -0.000003 1.439551 -6.408625 79.462694 4.892418 -4.651233 92.898619 -0.000000 0.000001 0.000000 6.015901 -12.170129 79.358568 3.637581 -4.544413 77.340445 0.000000 0.000001 0.000001 0.000000 0.000000 -0.000000 -0.000000 0.000003 -0.000001 0.000000 0.000000 -0.000000 -0.000001 0.000000 -0.000000 -0.000001 0.000001 -0.000001 -0.000001 0.000000 -0.000000 -0.000001 0.000001 -0.000000 0.000000 0.000000 -0.000000 0.000000 0.000000 -0.000000 0.000000 0.000000 -0.000000 0.000000 0.000000 -0.000000 0.000000 0.000000 -0.000000 0.000000 0.000000 -0.000000 0.000000 0.000000 -0.000000 -0.000001 0.000000 0.000000 0.000001 0.000000 -0.000000 
-1.487287 84.459900 28.429535 14.737487 -5.892411 -1.427668 -0.000001 -0.000000 -0.000000 -9.157199 8.473744 -4.112343 39.654040 4.254804 2.311005 -40.371954 -1.663133 2.951605 0.000000 0.000000 -0.000000 0.000004 -0.000000 0.000000 -82.113306 -5.289287 0.934677 91.041832 -4.513958 -0.418146 12.135942 -0.678516 0.754602 -0.000001 -0.000000 0.000001 -0.000003 -0.000000 -0.000001 7.351250 -2.320799 -1.371744 0.843524 -1.056091 1.023561 3.373192 -0.917605 1.368015 -0.727173 0.015353 0.332672 -0.727161 0.015353 0.332671 -0.000001 -0.000000 -0.000000 -0.727092 0.015347 0.332673 -0.727159 0.015360 0.332670 -0.000001 0.000000 -0.000000 -0.000001 -0.000000 -0.000000 0.834585 1.532722 -8.144514 -9.189239 -11.070579 -47.780056 -0.001086 -88.394136 -0.001070 -8.470218 -14.051646 -29.286393 7.544648 6.585592 3.373176 1.845324 7.772106 16.157545 0.000002 0.000001 -0.000003 -1.275830 5.603469 -79.279652 4.750868 5.747045 -79.143492 0.000001 -0.000001 -0.000001 -2.226659 6.959950 -80.657492 5.165917 5.810926 -83.263790 -0.000002 0.000001 -0.000003 -3.859999 7.367541 -84.819639 4.282885 5.637684 -74.427950 0.000001 -0.000001 -0.000000 -2.262348 8.204188 -89.866629 4.827936 5.761195 -79.912489 -0.000003 -0.000003 -0.000003 0.000001 0.000000 -0.000001 0.000001 0.000000 -0.000001 0.000001 -0.000000 -0.000001 -0.000001 -0.000001 -0.000002 -0.000001 -0.000002 -0.000002 -0.000001 -0.000001 -0.000002 -0.000000 -0.000002 -0.000002 1.455629 -6.680846 14.820868 0.812857 -16.693669 41.175871 -0.000005 54.165668 0.000018 -22.071374 3.885938 -10.746075 -1.122146 -5.911140 7.023908 14.093363 -18.583374 -21.059309 -0.000000 0.000001 -0.000000 11.062551 -3.457777 97.884452 3.592885 -4.534193 76.775616 0.000001 0.000000 -0.000004 4.304299 -6.915068 86.130058 4.125269 -4.626754 83.434872 0.000001 0.000000 -0.000002 0.799767 -6.510856 83.300707 5.241173 -4.620468 97.211624 0.000003 0.000001 -0.000001 5.562955 -11.784497 82.749852 3.910723 -4.597066 80.766994 -0.000004 -0.000000 0.000002 -0.000000 0.000001 0.000001 0.000000 0.000001 0.000001 -0.000000 0.000001 0.000001 -0.000003 0.000004 -0.000002 -0.000003 0.000005 -0.000002 -0.000003 0.000004 -0.000002 -0.000002 0.000005 -0.000001 -0.000001 -0.000001 -0.000000 -0.000001 -0.000001 -0.000000 -0.000001 -0.000001 -0.000000 -0.000001 -0.000001 -0.000000 -0.000001 -0.000001 -0.000000 -0.000001 -0.000001 -0.000000 -0.000001 -0.000001 -0.000000 -0.000001 0.000000 -0.000000 -0.000001 -0.000000 -0.000000 
-1.443725 85.946152 39.034767 17.274196 -5.851292 -3.790591 -0.000000 -0.000000 -0.000001 -0.717991 8.286020 -2.034688 26.991513 6.317163 3.589951 -30.170305 -3.656155 -1.328570 0.000000 0.000000 -0.000000 0.000001 0.000000 -0.000000 -73.738333 -6.741658 2.242249 66.911668 -4.404756 1.371784 2.250845 -0.465044 5.980061 0.000002 0.000001 0.000001 0.000000 0.000000 -0.000001 7.080980 -3.068274 0.833087 0.734258 -1.868172 1.353235 3.010500 -1.705694 1.719727 -0.454040 0.002247 0.461553 -0.454028 0.002243 0.461551 0.000001 -0.000001 0.000000 -0.454104 0.002238 0.461554 -0.453956 0.002253 0.461551 -0.000000 -0.000000 -0.000000 0.000001 -0.000001 0.000000 0.642369 3.533816 -4.669934 -6.849038 1.159816 -44.973889 0.000429 -86.968648 0.000363 -10.534227 -8.624266 -41.943556 8.177571 7.214834 3.173794 1.759549 8.164861 16.956617 0.000001 -0.000004 -0.000003 -0.146035 6.113852 -83.062422 5.030383 5.793412 -81.923160 -0.000002 -0.000000 -0.000001 -2.261430 7.437121 -84.316787 5.467967 5.838514 -86.239444 -0.000000 -0.000001 -0.000001 -4.569267 7.949195 -88.413869 4.534242 5.701453 -76.971963 0.000001 0.000001 0.000001 -3.604572 8.772701 -93.185767 5.118100 5.805118 -82.791551 -0.000002 -0.000003 0.000002 -0.000001 0.000002 -0.000000 -0.000001 0.000002 -0.000000 -0.000002 0.000002 -0.000000 -0.000001 0.000001 -0.000002 -0.000001 0.000001 -0.000003 -0.000001 0.000001 -0.000002 -0.000001 0.000001 -0.000002 1.736538 -11.633768 15.130787 -8.999723 -23.717463 30.946679 0.000002 37.693932 -0.000003 -35.864371 2.257280 -10.819124 -0.367550 -6.789377 7.438981 13.699650 -19.270580 -22.592562 -0.000001 -0.000001 -0.000002 12.552113 -2.382290 103.204561 3.847571 -4.586414 79.978052 -0.000003 0.000001 0.000001 4.648652 -6.932265 90.435666 4.414641 -4.650841 87.011781 0.000000 -0.000001 -0.000000 0.162590 -6.717471 87.133632 5.586584 -4.563655 101.524034 -0.000000 -0.000003 -0.000003 5.072343 -11.486692 86.136936 4.186546 -4.633362 84.193946 0.000000 0.000002 -0.000000 -0.000000 0.000001 -0.000003 -0.000001 0.000001 0.000001 -0.000001 0.000001 -0.000003 -0.000001 -0.000001 -0.000002 -0.000001 0.000000 -0.000002 -0.000001 -0.000001 -0.000002 -0.000001 -0.000000 -0.000002 0.000002 -0.000000 0.000000 0.000002 -0.000000 0.000000 0.000002 -0.000000 0.000000 0.000002 -0.000000 0.000000 0.000002 -0.000000 0.000000 0.000002 -0.000000 0.000000 0.000002 -0.000000 0.000000 0.000003 -0.000000 -0.000000 -0.000000 -0.000000 -0.000001 
